<svg xmlns="http://www.w3.org/2000/svg" xmlns:xlink="http://www.w3.org/1999/xlink" version="1.1" x="0px" y="0px" viewBox="0 0 110 110" enable-background="new 0 0 100 100" xml:space="preserve">
    <path d="M89.577,63.536c-4.175-4.173-10.147-6.101-15.976-5.157c-1.764,0.285-4.351-0.121-5.666-1.434L43.063,32.047  c-1.313-1.319-1.723-3.906-1.441-5.669c0.936-5.821-0.991-11.786-5.157-15.957C30.04,3.996,20.037,3.187,12.68,8.5  c-0.262,0.188-0.412,0.492-0.41,0.816c0.003,0.322,0.162,0.622,0.427,0.806c0.135,0.096,10.531,7.375,10.531,7.375  c2.692,1.886,3.349,5.609,1.463,8.302l-0.629,0.896c-0.908,1.296-2.266,2.153-3.824,2.415c-1.556,0.261-3.12-0.102-4.402-1.032  L6.651,21.43c-0.044-0.031-0.094-0.062-0.142-0.086c-0.297-0.146-0.648-0.137-0.938,0.027c-0.287,0.164-0.477,0.462-0.498,0.794  c-0.367,5.319,1.584,10.531,5.353,14.297c4.17,4.173,10.145,6.097,15.972,5.156c1.771-0.284,4.353,0.123,5.666,1.438l24.875,24.895  c1.314,1.32,1.722,3.904,1.438,5.671c-0.932,5.821,0.996,11.789,5.161,15.954c3.583,3.585,8.282,5.423,13.014,5.423  c3.749,0,7.519-1.153,10.772-3.501c0.234-0.17,0.384-0.438,0.406-0.727c0.023-0.291-0.082-0.578-0.289-0.783  c-0.039-0.04-0.086-0.078-0.133-0.11l-10.531-7.376c-2.692-1.885-3.35-5.607-1.465-8.301l0.631-0.899  c0.906-1.295,2.264-2.151,3.82-2.413c1.56-0.264,3.12,0.104,4.401,1.03c9.448,6.841,9.448,6.841,9.771,6.841  c0.521,0,0.955-0.404,0.99-0.925C95.295,72.518,93.346,67.307,89.577,63.536z"/>
</svg>