<svg xmlns="http://www.w3.org/2000/svg" xmlns:xlink="http://www.w3.org/1999/xlink" version="1.1" x="0px" y="0px" viewBox="0 0 128 128" enable-background="new 0 0 128 128" xml:space="preserve">
    <g>
        <polygon points="105.9,10 110.4,5.5 105.9,1 96.8,10.1 101.3,14.6  "/>
        <polygon points="88.4,27.5 97.5,18.4 93,13.9 83.9,23 86.2,25.2  "/>
        <polygon points="84.6,31.3 82.4,29 80.1,26.8 71.1,35.8 75.6,40.3  "/>
        <rect x="95.9" y="22.6" transform="matrix(0.7071 0.7071 -0.7071 0.7071 49.4882 -61.5403)" width="6.4" height="12.8"/>
        <polygon points="105.1,18.4 109.6,22.9 114.2,18.3 118.7,13.8 114.2,9.3 109.7,13.8  "/>
        <polygon points="88.4,35.1 88.4,35.1 79.4,44.1 83.9,48.6 92.9,39.6 88.4,35.1  "/>
        <polygon points="114.1,35 111.9,32.7 109.6,30.5 100.5,39.6 105,44.1  "/>
        <polygon points="113.4,26.7 115.7,28.9 117.9,31.2 127,22.1 122.5,17.6 118,22.1  "/>
        <rect x="91.3" y="43.7" transform="matrix(0.7071 0.7071 -0.7071 0.7071 63.1263 -52.0931)" width="6.4" height="12.8"/>
        <rect x="17.5" y="84.3" transform="matrix(0.7071 0.7071 -0.7071 0.7071 70.212 11.9602)" width="6.3" height="12.8"/>
        <polygon points="18.4,105.1 13.8,109.7 9.3,114.2 13.8,118.7 22.9,109.6  "/>
        <polygon points="14.6,101.3 10.1,96.8 1,105.9 5.5,110.4 10,105.9  "/>
        <polygon points="26.7,113.4 26.7,113.4 17.6,122.5 22.1,127 31.2,117.9 26.7,113.4  "/>
        <polygon points="39.6,92.9 48.6,83.9 44.1,79.4 35.1,88.4 37.3,90.7  "/>
        <polygon points="26.8,80.1 31.3,84.6 31.3,84.6 31.3,84.6 40.3,75.6 35.8,71.1  "/>
        <polygon points="33.5,94.5 31.3,92.2 22.2,101.3 26.7,105.8 35.8,96.7 35.8,96.7 35.8,96.7  "/>
        <polygon points="39.6,100.5 39.6,100.5 30.5,109.6 35,114.1 44.1,105 39.6,100.5  "/>
        <rect x="47" y="88" transform="matrix(-0.7071 -0.7071 0.7071 -0.7071 18.8348 196.6918)" width="6.3" height="12.8"/>
        <rect x="80.1" y="19.2" width="0" height="0"/>
        <path d="M91.3,71L48.6,28.3L28.3,48.6L71,91.3c1.8-4.6,4.6-8.7,8.1-12.2C82.6,75.6,86.8,72.9,91.3,71z"/>
        <path d="M126.6,82.5c-8.5-8.2-20.5-10.6-31.1-7.3c-4.6,1.5-9,4-12.6,7.7c-3.7,3.7-6.2,8-7.7,12.6   c-3.4,10.6-0.9,22.6,7.3,31.1l20.2-20.2l3.9,3.9c-0.8,2.3-0.3,4.9,1.5,6.7c2.5,2.5,6.5,2.5,9,0c2.5-2.5,2.5-6.5,0-9   c-1.8-1.8-4.4-2.3-6.7-1.5l-3.9-3.9L126.6,82.5z"/>
        <path d="M27.2,42.1l14.9-14.9c-3.5-2.7-8.2-2.9-11.9-0.8l-6-6c-1.1-1.1-2.8-1.1-3.8,0l0,0c-1.1,1.1-1.1,2.8,0,3.8   l6,6C24.3,33.9,24.5,38.7,27.2,42.1z"/>
    </g>
</svg>