<svg xmlns="http://www.w3.org/2000/svg" xmlns:xlink="http://www.w3.org/1999/xlink" version="1.1" x="0px" y="0px" viewBox="0 0 57 73.75" enable-background="new 0 0 57 59" xml:space="preserve">
    <path d="M52.71,43.07l-9.34-24.29C45.46,18.18,47,16.28,47,14c0-2.76-2.24-5-5-5c-2.02,0-3.76,1.21-4.54,2.94  L13.99,5.1C13.99,5.07,14,5.04,14,5c0-2.76-2.24-5-5-5S4,2.24,4,5c0,2.38,1.68,4.37,3.91,4.87L4.08,49.09C1.76,49.53,0,51.56,0,54  c0,2.76,2.24,5,5,5c2.74,0,4.96-2.21,4.99-4.95l37.39-4.14C48.14,51.72,49.92,53,52,53c2.76,0,5-2.24,5-5  C57,45.49,55.13,43.42,52.71,43.07z M42,11c1.65,0,3,1.35,3,3s-1.35,3-3,3s-3-1.35-3-3c0-0.2,0.02-0.41,0.07-0.62l0,0  C39.36,12.02,40.56,11,42,11z M6,5c0-1.65,1.35-3,3-3s3,1.35,3,3c0,0.2-0.02,0.39-0.06,0.58l-0.01,0.04c0,0.02-0.01,0.03-0.01,0.05  c-0.04,0.16-0.08,0.31-0.14,0.46c-0.03,0.08-0.07,0.14-0.11,0.22c-0.05,0.09-0.09,0.18-0.14,0.27c-0.05,0.08-0.1,0.14-0.16,0.21  c-0.06,0.07-0.11,0.14-0.17,0.21c-0.06,0.07-0.13,0.13-0.2,0.19c-0.06,0.06-0.13,0.11-0.2,0.16c-0.08,0.06-0.15,0.11-0.23,0.16  c-0.07,0.05-0.15,0.09-0.23,0.13c-0.08,0.04-0.16,0.08-0.25,0.11c-0.1,0.04-0.2,0.07-0.3,0.09C9.7,7.9,9.63,7.93,9.56,7.94  C9.38,7.98,9.19,8,9,8C7.35,8,6,6.65,6,5z M9.92,9.91c0.01,0,0.03-0.01,0.04-0.01c0.06-0.01,0.11-0.03,0.17-0.04  c0.23-0.05,0.45-0.12,0.67-0.21c0.07-0.03,0.15-0.05,0.22-0.08c0.23-0.1,0.46-0.23,0.67-0.36c0.08-0.05,0.16-0.11,0.23-0.16  c0.18-0.13,0.36-0.28,0.53-0.43c0.06-0.05,0.11-0.11,0.17-0.17c0.16-0.17,0.31-0.35,0.45-0.54c0.05-0.07,0.1-0.13,0.14-0.2  c0.13-0.2,0.26-0.42,0.36-0.64L37,13.89c0,0.04,0,0.07,0,0.11c0,0.33,0.04,0.65,0.1,0.97c0.02,0.1,0.06,0.2,0.09,0.3  c0.05,0.2,0.11,0.41,0.19,0.6c0.05,0.11,0.11,0.22,0.16,0.33c0.08,0.17,0.17,0.34,0.27,0.49c0.07,0.11,0.15,0.21,0.23,0.31  c0.11,0.14,0.22,0.28,0.34,0.42c0.09,0.1,0.19,0.18,0.28,0.27c0.13,0.12,0.27,0.23,0.41,0.34c0.11,0.08,0.22,0.15,0.33,0.22  c0.15,0.09,0.31,0.18,0.47,0.25c0.12,0.06,0.24,0.11,0.37,0.16c0.17,0.06,0.34,0.11,0.52,0.16c0.13,0.03,0.26,0.07,0.4,0.09  c0.05,0.01,0.1,0.03,0.16,0.04l9.32,24.24c-0.13,0.04-0.24,0.09-0.36,0.14c-0.09,0.04-0.19,0.07-0.28,0.11  c-0.24,0.11-0.47,0.23-0.69,0.37c-0.03,0.02-0.06,0.03-0.09,0.05c-0.24,0.17-0.47,0.36-0.68,0.56c-0.06,0.06-0.12,0.13-0.17,0.19  c-0.14,0.15-0.28,0.31-0.4,0.48c-0.06,0.09-0.12,0.17-0.17,0.26c-0.1,0.17-0.2,0.34-0.28,0.52c-0.05,0.1-0.09,0.19-0.13,0.29  c-0.08,0.2-0.14,0.41-0.19,0.62c-0.02,0.08-0.05,0.16-0.07,0.25c-0.06,0.29-0.09,0.59-0.1,0.9L9.62,52.08c0,0,0,0,0,0  c-0.02-0.04-0.04-0.07-0.05-0.11c-0.1-0.22-0.22-0.44-0.35-0.64c-0.04-0.07-0.08-0.13-0.13-0.2c-0.15-0.21-0.31-0.41-0.49-0.59  c-0.06-0.06-0.12-0.12-0.19-0.18c-0.15-0.14-0.31-0.27-0.48-0.39c-0.06-0.05-0.12-0.1-0.19-0.14c-0.21-0.14-0.44-0.26-0.67-0.36  c-0.08-0.04-0.16-0.07-0.25-0.11c-0.24-0.09-0.48-0.18-0.73-0.23L9.92,9.91z M5,57c-1.65,0-3-1.35-3-3s1.35-3,3-3  c0.19,0,0.38,0.02,0.56,0.06c0.07,0.01,0.15,0.04,0.22,0.06c0.1,0.03,0.2,0.06,0.3,0.09c0.08,0.03,0.17,0.07,0.25,0.11  c0.08,0.04,0.16,0.08,0.23,0.13c0.08,0.05,0.16,0.1,0.23,0.16c0.07,0.05,0.13,0.11,0.2,0.16c0.07,0.06,0.14,0.13,0.2,0.19  c0.06,0.07,0.12,0.14,0.17,0.21c0.05,0.07,0.11,0.14,0.16,0.21c0.05,0.08,0.1,0.17,0.14,0.26c0.04,0.07,0.08,0.14,0.11,0.22  c0.06,0.15,0.11,0.3,0.14,0.46c0,0.02,0.01,0.03,0.02,0.05l0.01,0.04C7.98,53.61,8,53.8,8,54C8,55.65,6.65,57,5,57z M52,51  c-1.44,0-2.64-1.02-2.93-2.38l0,0C49.02,48.41,49,48.2,49,48c0-1.65,1.35-3,3-3s3,1.35,3,3S53.65,51,52,51z"/>
</svg>