<svg xmlns:dc="http://purl.org/dc/elements/1.1/" xmlns:cc="http://creativecommons.org/ns#" xmlns:rdf="http://www.w3.org/1999/02/22-rdf-syntax-ns#" xmlns:svg="http://www.w3.org/2000/svg" xmlns="http://www.w3.org/2000/svg" xmlns:sodipodi="http://sodipodi.sourceforge.net/DTD/sodipodi-0.dtd" xmlns:inkscape="http://www.inkscape.org/namespaces/inkscape" version="1.1" x="0px" y="0px" viewBox="0 0 100 125">
    <g transform="translate(0,-952.36218)">
        <path style="text-indent:0;text-transform:none;direction:ltr;block-progression:tb;baseline-shift:baseline;enable-background:accumulate;" d="m 49.9688,958.36845 c -0.228,0.017 -0.443,0.074 -0.6563,0.125 l -32,12 c -0.7627,0.2793 -1.3112,1.0628 -1.3125,1.875 l 0,38.00005 c 0,7.8685 4.7087,14.3709 11.0312,20.0313 6.3228,5.6603 14.3813,10.6499 21.8438,15.625 0.6586,0.448 1.5914,0.448 2.25,0 7.4625,-4.9751 15.521,-9.9647 21.8438,-15.625 C 79.2913,1024.7394 84,1018.237 84,1010.3685 l 0,-38.00005 c 0,-0.8122 -0.5498,-1.5957 -1.3125,-1.875 l -32,-12 c -0.2499,-0.1186 -0.4908,-0.1419 -0.7187,-0.125 z m 0.031,4.125 30,11.25 0,36.62505 c 0,6.2647 -3.7915,11.756 -9.7188,17.0625 -5.6325,5.0425 -13.0866,9.7314 -20.2812,14.5 -7.1945,-4.7686 -14.6486,-9.4575 -20.2812,-14.5 -5.9274,-5.3065 -9.7188,-10.7979 -9.7188,-17.0625 l 0,-36.62505 30,-11.25 z m 0,19.875 c -1.1042,0 -2,0.8954 -2,2 l 0,2.1563 c -1.8958,0.3026 -3.6202,1.046 -5,2.2187 -1.8495,1.572 -3,3.9557 -3,6.625 0,2.9131 1.5946,5.11435 3.4688,6.31245 1.8742,1.1981 3.9223,1.7727 5.75,2.5312 2.946,1.1177 6.7515,2.2596 6.7812,5.1564 0,1.5715 -0.5728,2.6947 -1.5938,3.5625 -1.0209,0.8678 -2.5615,1.4375 -4.4062,1.4375 -3.1618,0 -5.4439,-1.3591 -6.0625,-3.5625 -0.2859,-1.0147 -1.4549,-1.6614 -2.4687,-1.375 -1.0138,0.2864 -1.6927,1.4542 -1.4063,2.4688 1.0156,3.6175 4.286,5.7461 7.9375,6.3124 l 0,2.1563 c 0,1.1046 0.8958,2 2,2 1.1042,0 2,-0.8954 2,-2 l 0,-2.1563 c 1.8958,-0.3115 3.6202,-1.0772 5,-2.25 1.8496,-1.572 3,-3.9244 3,-6.5937 0,-2.9131 -1.5946,-5.1457 -3.4688,-6.3438 -1.8742,-1.1982 -3.9222,-1.7728 -5.75,-2.5313 -2.9321,-1.11585 -6.7517,-2.25765 -6.7812,-5.12495 0,-1.5716 0.5728,-2.726 1.5938,-3.5937 1.0209,-0.8678 2.5615,-1.4063 4.4062,-1.4063 3.1618,0 5.4439,1.3278 6.0625,3.5313 0.2859,1.0146 1.4549,1.6926 2.4687,1.4062 1.0137,-0.2864 1.6927,-1.4855 1.4063,-2.5 -1.0156,-3.6176 -4.2859,-5.6905 -7.9375,-6.25 l 0,-2.1875 c 0,-1.1046 -0.8958,-2 -2,-2 z" fill="#000000" fill-opacity="1" stroke="none" marker="none" visibility="visible" display="inline" overflow="visible"/>
    </g>
</svg>