<svg xmlns="http://www.w3.org/2000/svg" xmlns:xlink="http://www.w3.org/1999/xlink" version="1.1" x="0px" y="0px" viewBox="0 0 100 100" enable-background="new 0 0 100 100" xml:space="preserve">
    <g>
        <path d="M82.322,29.618c0.214,0,0.415,0.083,0.566,0.235c0.312,0.312,0.312,0.82,0,1.133   c-0.15,0.15-0.35,0.233-0.563,0.233c-0.089,0-0.176-0.014-0.26-0.042l-0.374-0.126l-0.126-0.374   c-0.098-0.292-0.025-0.608,0.19-0.823C81.907,29.701,82.108,29.618,82.322,29.618 M38.552,88.637l0.354,0.175   c0.276,0.137,0.447,0.412,0.447,0.717c0,0.442-0.359,0.801-0.801,0.801s-0.801-0.359-0.801-0.801c0-0.305,0.171-0.58,0.447-0.717   L38.552,88.637 M82.322,28.368c-0.525,0-1.05,0.2-1.451,0.601c-0.57,0.57-0.732,1.391-0.491,2.106L65.494,45.962H46.056   l-8.414,8.414v33.317c-0.676,0.336-1.142,1.031-1.142,1.837c0,1.133,0.919,2.051,2.051,2.051c1.133,0,2.051-0.919,2.051-2.051   c0-0.806-0.466-1.501-1.142-1.837V55.129l7.348-7.348h19.437l15.42-15.42c0.213,0.072,0.436,0.108,0.659,0.108   c0.524,0,1.048-0.199,1.448-0.599c0.801-0.801,0.801-2.1,0-2.901C83.373,28.568,82.847,28.368,82.322,28.368L82.322,28.368z"/><path fill="#000000" d="M61.778,14.362c0.442,0,0.801,0.359,0.801,0.801c0,0.305-0.171,0.58-0.447,0.717l-0.354,0.175l-0.354-0.175   c-0.276-0.137-0.447-0.412-0.447-0.717C60.977,14.722,61.337,14.362,61.778,14.362 M32.906,75.869l0.354,0.175   c0.276,0.137,0.447,0.412,0.447,0.717c0,0.442-0.359,0.801-0.801,0.801s-0.801-0.359-0.801-0.801c0-0.305,0.171-0.58,0.447-0.717   L32.906,75.869 M61.778,13.112c-1.133,0-2.051,0.919-2.051,2.051c0,0.806,0.466,1.501,1.142,1.837v16.186l-5.823,5.615H42.987   l-10.99,10.99v25.133c-0.676,0.335-1.142,1.031-1.142,1.837c0,1.133,0.919,2.051,2.051,2.051s2.051-0.919,2.051-2.051   c0-0.806-0.466-1.501-1.142-1.837v-24.38l9.925-9.925H55.78l6.908-6.661V17c0.676-0.335,1.142-1.031,1.142-1.837   C63.83,14.03,62.911,13.112,61.778,13.112L61.778,13.112z"/><path fill="#000000" d="M11.851,34.222c0.214,0,0.415,0.083,0.566,0.234c0.216,0.216,0.289,0.531,0.19,0.823l-0.126,0.374   l-0.374,0.126c-0.084,0.028-0.171,0.042-0.26,0.042c-0.213,0-0.413-0.083-0.563-0.233c-0.151-0.151-0.235-0.352-0.235-0.566   s0.083-0.415,0.235-0.566C11.436,34.305,11.637,34.222,11.851,34.222 M27.109,86.213l0.354,0.175   c0.276,0.137,0.447,0.412,0.447,0.717c0,0.442-0.359,0.801-0.801,0.801c-0.442,0-0.801-0.359-0.801-0.801   c0-0.305,0.171-0.58,0.447-0.717L27.109,86.213 M11.851,32.971c-0.525,0-1.05,0.2-1.451,0.601c-0.801,0.801-0.801,2.1,0,2.901   c0.4,0.4,0.924,0.599,1.448,0.599c0.223,0,0.445-0.036,0.659-0.108l7.101,7.101v12.276l6.593,6.593v22.334   c-0.676,0.335-1.142,1.031-1.142,1.837c0,1.133,0.919,2.051,2.051,2.051c1.133,0,2.051-0.919,2.051-2.051   c0-0.806-0.466-1.501-1.142-1.837V62.181l-6.593-6.593V43.312l-7.634-7.634c0.241-0.715,0.079-1.536-0.491-2.106   C12.901,33.172,12.376,32.971,11.851,32.971L11.851,32.971z"/><path fill="#000000" d="M74.423,19.9c0.214,0,0.415,0.083,0.566,0.235c0.312,0.312,0.312,0.821,0,1.133   c-0.15,0.15-0.35,0.233-0.563,0.233c-0.089,0-0.176-0.014-0.26-0.042l-0.374-0.126l-0.126-0.374   c-0.098-0.292-0.025-0.608,0.19-0.823C74.007,19.983,74.209,19.9,74.423,19.9 M62.998,39.507c0.089,0,0.176,0.014,0.26,0.042   l0.374,0.126l0.126,0.374c0.098,0.292,0.025,0.607-0.19,0.823c-0.151,0.151-0.352,0.235-0.566,0.235   c-0.214,0-0.415-0.083-0.566-0.235c-0.151-0.151-0.235-0.352-0.235-0.566s0.083-0.415,0.235-0.566   C62.585,39.589,62.785,39.507,62.998,39.507 M74.423,18.649c-0.525,0-1.05,0.2-1.451,0.601c-0.57,0.57-0.732,1.391-0.491,2.106   l-3.655,3.655v8.184l-5.169,5.168c-0.213-0.072-0.436-0.108-0.659-0.108c-0.524,0-1.048,0.199-1.447,0.599   c-0.801,0.801-0.801,2.1,0,2.901c0.401,0.401,0.926,0.601,1.451,0.601c0.525,0,1.05-0.2,1.451-0.601   c0.57-0.57,0.732-1.391,0.491-2.106l5.701-5.701v-8.184l3.123-3.122c0.213,0.072,0.436,0.108,0.659,0.108   c0.524,0,1.048-0.199,1.447-0.599c0.801-0.801,0.801-2.1,0-2.901C75.473,18.849,74.948,18.649,74.423,18.649L74.423,18.649z"/><path fill="#000000" d="M88.149,36.869c0.442,0,0.801,0.359,0.801,0.801c0,0.305-0.171,0.58-0.447,0.717l-0.354,0.175l-0.354-0.175   c-0.276-0.137-0.447-0.412-0.447-0.717C87.348,37.228,87.708,36.869,88.149,36.869 M81.413,51.783c0.089,0,0.176,0.014,0.26,0.042   l0.374,0.126l0.126,0.374c0.098,0.292,0.025,0.607-0.19,0.823c-0.151,0.151-0.352,0.235-0.566,0.235   c-0.214,0-0.415-0.083-0.566-0.235c-0.312-0.312-0.312-0.82,0-1.133C80.999,51.865,81.199,51.783,81.413,51.783 M88.149,35.618   c-1.133,0-2.051,0.919-2.051,2.051c0,0.806,0.466,1.501,1.142,1.837v5.966l-5.169,5.168c-0.213-0.072-0.436-0.108-0.659-0.108   c-0.524,0-1.048,0.199-1.447,0.599c-0.801,0.801-0.801,2.1,0,2.901c0.4,0.401,0.926,0.601,1.451,0.601   c0.525,0,1.05-0.2,1.451-0.601c0.57-0.57,0.732-1.391,0.491-2.106l5.701-5.701v-6.719c0.676-0.335,1.142-1.031,1.142-1.837   C90.201,36.537,89.282,35.618,88.149,35.618L88.149,35.618z"/><path fill="#000000" d="M22.676,18.454c0.442,0,0.801,0.359,0.801,0.801c0,0.305-0.171,0.58-0.447,0.717l-0.354,0.175l-0.354-0.175   c-0.276-0.137-0.447-0.412-0.447-0.717C21.875,18.814,22.235,18.454,22.676,18.454 M26.768,53.135l0.354,0.175   c0.276,0.137,0.447,0.412,0.447,0.717c0,0.442-0.359,0.801-0.801,0.801c-0.442,0-0.801-0.359-0.801-0.801   c0-0.305,0.171-0.58,0.447-0.717L26.768,53.135 M22.676,17.204c-1.133,0-2.051,0.919-2.051,2.051c0,0.806,0.466,1.501,1.142,1.837   v8.765l4.092,4.092V52.19c-0.676,0.335-1.142,1.031-1.142,1.837c0,1.133,0.919,2.051,2.051,2.051c1.133,0,2.051-0.919,2.051-2.051   c0-0.806-0.466-1.501-1.142-1.837V33.196l-4.092-4.092v-8.012c0.676-0.335,1.142-1.031,1.142-1.837   C24.728,18.123,23.809,17.204,22.676,17.204L22.676,17.204z"/><path fill="#000000" d="M14.492,24.592c0.442,0,0.801,0.359,0.801,0.801c0,0.305-0.171,0.58-0.447,0.717l-0.354,0.175l-0.354-0.175   c-0.276-0.137-0.447-0.412-0.447-0.717C13.691,24.952,14.051,24.592,14.492,24.592 M19.183,33.369c0.213,0,0.413,0.083,0.563,0.233   c0.312,0.312,0.312,0.82,0,1.133c-0.151,0.151-0.352,0.235-0.566,0.235s-0.415-0.083-0.566-0.235   c-0.216-0.216-0.289-0.531-0.19-0.823l0.126-0.374l0.374-0.126C19.007,33.383,19.094,33.369,19.183,33.369 M14.492,23.342   c-1.133,0-2.051,0.919-2.051,2.051c0,0.806,0.466,1.501,1.142,1.837v2.627l3.655,3.655c-0.241,0.715-0.079,1.536,0.491,2.106   c0.401,0.401,0.926,0.601,1.451,0.601c0.525,0,1.05-0.2,1.451-0.601c0.801-0.801,0.801-2.1,0-2.901   c-0.4-0.4-0.924-0.599-1.447-0.599c-0.223,0-0.445,0.036-0.659,0.108l-3.122-3.122V27.23c0.676-0.335,1.142-1.031,1.142-1.837   C16.544,24.261,15.625,23.342,14.492,23.342L14.492,23.342z"/><path fill="#000000" d="M30.86,14.362c0.442,0,0.801,0.359,0.801,0.801c0,0.305-0.171,0.58-0.447,0.717l-0.354,0.175l-0.354-0.175   c-0.276-0.137-0.447-0.412-0.447-0.717C30.059,14.722,30.419,14.362,30.86,14.362 M51.315,30.725c0.442,0,0.801,0.359,0.801,0.801   c0,0.442-0.359,0.801-0.801,0.801c-0.305,0-0.58-0.171-0.717-0.447l-0.175-0.353l0.175-0.354   C50.736,30.897,51.01,30.725,51.315,30.725 M30.86,13.112c-1.133,0-2.051,0.919-2.051,2.051c0,0.806,0.466,1.501,1.142,1.837v4.673   l10.763,10.763h8.765c0.336,0.676,1.031,1.142,1.837,1.142c1.133,0,2.051-0.919,2.051-2.051c0-1.133-0.919-2.051-2.051-2.051   c-0.806,0-1.501,0.466-1.837,1.142h-8.012l-9.697-9.697V17c0.676-0.335,1.142-1.031,1.142-1.837   C32.912,14.03,31.993,13.112,30.86,13.112L30.86,13.112z"/><path fill="#000000" d="M45.778,9.669c0.214,0,0.415,0.083,0.566,0.235c0.151,0.151,0.235,0.352,0.235,0.566   c0,0.214-0.083,0.415-0.234,0.566c-0.15,0.15-0.35,0.233-0.563,0.233c-0.089,0-0.176-0.014-0.26-0.042l-0.374-0.126l-0.126-0.374   c-0.098-0.292-0.025-0.608,0.19-0.823C45.363,9.753,45.564,9.669,45.778,9.669 M53.361,22.541c0.442,0,0.801,0.359,0.801,0.801   c0,0.442-0.359,0.801-0.801,0.801c-0.305,0-0.58-0.171-0.717-0.447l-0.175-0.353l0.175-0.354   C52.782,22.712,53.056,22.541,53.361,22.541 M45.778,8.419c-0.525,0-1.05,0.2-1.451,0.601c-0.57,0.57-0.732,1.391-0.491,2.106   l-6.078,6.078l7.047,7.047h6.719c0.336,0.676,1.031,1.142,1.837,1.142c1.133,0,2.051-0.919,2.051-2.051   c0-1.133-0.919-2.051-2.051-2.051c-0.806,0-1.501,0.466-1.837,1.142h-5.965l-5.229-5.229l4.792-4.792   c0.213,0.072,0.436,0.108,0.659,0.108c0.524,0,1.048-0.199,1.448-0.599c0.801-0.801,0.801-2.1,0-2.901   C46.828,8.619,46.303,8.419,45.778,8.419L45.778,8.419z"/><path fill="#000000" d="M56.008,9.669c0.214,0,0.415,0.083,0.566,0.235c0.312,0.312,0.312,0.821,0,1.133   c-0.15,0.15-0.35,0.233-0.563,0.233c-0.089,0-0.176-0.014-0.26-0.042l-0.374-0.126l-0.126-0.374   c-0.098-0.292-0.025-0.607,0.19-0.823C55.593,9.753,55.794,9.669,56.008,9.669 M50.722,14.954c0.089,0,0.176,0.014,0.26,0.042   l0.374,0.126l0.126,0.374c0.098,0.292,0.025,0.607-0.19,0.823c-0.151,0.151-0.352,0.235-0.566,0.235s-0.415-0.083-0.566-0.235   c-0.151-0.151-0.235-0.352-0.235-0.566s0.083-0.415,0.235-0.566C50.309,15.037,50.509,14.954,50.722,14.954 M56.008,8.419   c-0.525,0-1.05,0.2-1.451,0.601c-0.57,0.57-0.732,1.391-0.491,2.106l-2.686,2.686c-0.213-0.072-0.436-0.108-0.659-0.108   c-0.524,0-1.048,0.199-1.447,0.599c-0.801,0.801-0.801,2.1,0,2.901c0.401,0.401,0.926,0.601,1.451,0.601s1.05-0.2,1.451-0.601   c0.57-0.57,0.732-1.391,0.491-2.106l2.686-2.686c0.213,0.072,0.436,0.108,0.659,0.108c0.524,0,1.048-0.199,1.447-0.599   c0.801-0.801,0.801-2.1,0-2.901C57.058,8.619,56.533,8.419,56.008,8.419L56.008,8.419z"/><path fill="#000000" d="M32.311,30.13c0.214,0,0.415,0.083,0.566,0.234c0.216,0.216,0.289,0.531,0.19,0.823l-0.126,0.374   l-0.374,0.126c-0.084,0.028-0.171,0.042-0.26,0.042c-0.213,0-0.413-0.083-0.563-0.233c-0.312-0.312-0.312-0.821,0-1.133   C31.896,30.213,32.097,30.13,32.311,30.13 M32.308,39.507c0.089,0,0.176,0.014,0.26,0.042l0.374,0.126l0.126,0.374   c0.098,0.292,0.025,0.608-0.19,0.823c-0.151,0.151-0.352,0.235-0.566,0.235s-0.415-0.083-0.566-0.235   c-0.312-0.312-0.312-0.82,0-1.133C31.895,39.589,32.095,39.507,32.308,39.507 M32.311,28.879c-0.525,0-1.05,0.2-1.451,0.601   c-0.801,0.801-0.801,2.1,0,2.901c0.4,0.4,0.924,0.599,1.447,0.599c0.223,0,0.445-0.036,0.659-0.108l1.077,1.076v3.339l-1.076,1.076   c-0.213-0.072-0.436-0.108-0.659-0.108c-0.524,0-1.048,0.199-1.447,0.599c-0.801,0.801-0.801,2.1,0,2.901   c0.401,0.401,0.925,0.601,1.451,0.601c0.525,0,1.05-0.2,1.451-0.601c0.57-0.57,0.732-1.391,0.491-2.106l1.609-1.609v-4.845   l-1.609-1.609c0.241-0.715,0.079-1.536-0.491-2.106C33.361,29.08,32.836,28.879,32.311,28.879L32.311,28.879z"/><path fill="#000000" d="M80.561,42.406c0.214,0,0.415,0.083,0.566,0.235c0.312,0.312,0.312,0.821,0,1.133   c-0.15,0.15-0.35,0.233-0.563,0.233c-0.089,0-0.176-0.014-0.26-0.042l-0.374-0.126l-0.126-0.374   c-0.098-0.292-0.025-0.608,0.19-0.823C80.145,42.489,80.347,42.406,80.561,42.406 M51.326,53.231c0.305,0,0.58,0.171,0.717,0.447   l0.175,0.354l-0.175,0.353c-0.137,0.276-0.412,0.447-0.717,0.447c-0.442,0-0.801-0.359-0.801-0.801S50.884,53.231,51.326,53.231    M80.561,41.156c-0.525,0-1.05,0.2-1.451,0.601c-0.57,0.57-0.732,1.391-0.491,2.106l-9.261,9.261H53.163   c-0.335-0.676-1.031-1.142-1.837-1.142c-1.133,0-2.051,0.919-2.051,2.051c0,1.133,0.919,2.051,2.051,2.051   c0.806,0,1.501-0.466,1.837-1.142h16.949l9.793-9.793c0.213,0.072,0.436,0.108,0.659,0.108c0.524,0,1.048-0.199,1.448-0.599   c0.801-0.801,0.801-2.1,0-2.901C81.611,41.356,81.086,41.156,80.561,41.156L80.561,41.156z"/><path fill="#000000" d="M11.851,44.452c0.214,0,0.415,0.083,0.566,0.234c0.216,0.216,0.289,0.531,0.19,0.823l-0.126,0.374   l-0.374,0.126c-0.084,0.028-0.171,0.042-0.26,0.042c-0.213,0-0.413-0.083-0.563-0.233c-0.312-0.312-0.312-0.821,0-1.133   C11.436,44.535,11.637,44.452,11.851,44.452 M14.492,53.135l0.354,0.175c0.276,0.137,0.447,0.412,0.447,0.717   c0,0.442-0.359,0.801-0.801,0.801s-0.801-0.359-0.801-0.801c0-0.305,0.171-0.58,0.447-0.717L14.492,53.135 M11.851,43.202   c-0.525,0-1.05,0.2-1.451,0.601c-0.801,0.801-0.801,2.1,0,2.901c0.4,0.4,0.924,0.599,1.447,0.599c0.223,0,0.445-0.036,0.659-0.108   l1.077,1.076v3.919c-0.676,0.335-1.142,1.031-1.142,1.837c0,1.133,0.919,2.051,2.051,2.051s2.051-0.919,2.051-2.051   c0-0.806-0.466-1.501-1.142-1.837v-4.673l-1.609-1.609c0.241-0.715,0.079-1.536-0.491-2.106   C12.901,43.402,12.376,43.202,11.851,43.202L11.851,43.202z"/>
    </g>
</svg>
