<svg xmlns="http://www.w3.org/2000/svg" xmlns:xlink="http://www.w3.org/1999/xlink" viewBox="0 0 100 100" version="1.1" x="0px" y="0px">
    <g stroke="none" stroke-width="1" fill="none" fill-rule="evenodd">
        <path d="M90.5232706,70.1501766 L65.901259,88.1776828 L53.3839569,79.2551187 C52.650459,78.7338966 51.6598381,78.767781 50.9632144,79.3368399 L37.1074778,90.7010752 L25.9545218,83.2664356 C25.3436057,82.858826 24.5612743,82.8209552 23.9144806,83.1647824 L6.79986048,92.245806 C5.828175,92.762045 5.45843622,93.9689282 5.97367867,94.9406137 C6.33145825,95.6153122 7.02210238,96 7.73666493,96 C8.05059408,96 8.37050284,95.925255 8.66848639,95.7667955 L24.7326896,87.2438681 L36.1248297,94.8369672 C36.8523481,95.3213151 37.8150642,95.2754714 38.4947457,94.720365 L52.3116148,83.3870243 L64.7591549,92.2597584 C65.4607616,92.7580586 66.4005559,92.752079 67.0941898,92.2438128 L92.8782376,73.3662064 C93.7662086,72.7164229 93.9595491,71.4696757 93.308769,70.580708 C92.6599821,69.692737 91.4142315,69.4983999 90.5232706,70.1501766 M94.1708284,22.835572 L68.4694985,64.9688507 C68.0309943,65.6883962 67.3094555,66.1886897 66.4822771,66.3481458 C65.6541021,66.5076018 64.7990189,66.310275 64.125317,65.8049985 L53.027174,57.4983335 L39.7584351,78.5226173 C38.9751071,79.7613917 37.4094478,80.2497259 36.0620439,79.6776773 L24.9549315,74.958774 L10.0756863,82.4482266 C9.64515486,82.6654855 9.18671864,82.7681354 8.73426202,82.7681354 C7.63999468,82.7681354 6.58658797,82.1661887 6.06137952,81.1217514 C5.31891216,79.6477792 5.91288604,77.849912 7.38785476,77.1074446 L23.5048778,68.9941201 C24.2882058,68.5994663 25.2090646,68.567575 26.0173076,68.9133954 L36.0600507,73.1798421 L49.6985284,51.5685606 C50.1440088,50.863964 50.8635543,50.3756298 51.6837565,50.2241465 C52.5019655,50.0726632 53.3510691,50.2709867 54.0187915,50.7712802 L65.0770704,59.0480472 L89.0652441,19.7211955 C89.9253103,18.3110058 91.7630416,17.866522 93.1752245,18.7255916 C94.5844176,19.5856578 95.029898,21.4253823 94.1708284,22.835572" fill="#000000"/>
    </g>
</svg>