<svg xmlns="http://www.w3.org/2000/svg" xmlns:xlink="http://www.w3.org/1999/xlink" version="1.1" x="0px" y="0px" viewBox="0 0 100 125" enable-background="new 0 0 100 100" xml:space="preserve"><g><path d="M85.329,58.879L32.673,23.818l4.036,63.132l13.809-15.52l13.267,22.978l14.956-8.635L65.569,62.958L85.329,58.879z    M72.932,84.217L65.341,88.6L51.256,64.204L40.303,76.515l-2.839-44.397l37.031,24.656l-15.553,3.21L72.932,84.217z"/><path d="M27.279,36.806c-5.076-2.261-8.356-7.313-8.356-12.871c0-7.77,6.321-14.091,14.091-14.091s14.091,6.321,14.091,14.091   c0,0.393-0.018,0.787-0.05,1.179c-0.096,1.17,0.774,2.197,1.944,2.294c1.168,0.095,2.196-0.774,2.294-1.944   c0.042-0.509,0.063-1.019,0.063-1.528c0-10.114-8.229-18.343-18.343-18.343S14.671,13.82,14.671,23.935   c0,7.235,4.27,13.813,10.878,16.756c0.281,0.125,0.575,0.185,0.864,0.185c0.813,0,1.591-0.471,1.943-1.262   C28.834,38.54,28.352,37.284,27.279,36.806z"/></g><text x="0" y="115" fill="#000000" font-size="5px" font-weight="bold" font-family="'Helvetica Neue', Helvetica, Arial-Unicode, Arial, Sans-serif">Created by Nikita Kozin</text><text x="0" y="120" fill="#000000" font-size="5px" font-weight="bold" font-family="'Helvetica Neue', Helvetica, Arial-Unicode, Arial, Sans-serif">from the Noun Project</text></svg>