<svg xmlns="http://www.w3.org/2000/svg" xmlns:xlink="http://www.w3.org/1999/xlink" version="1.1" x="0px" y="0px" viewBox="0 0 100 100" enable-background="new 0 0 100 100" xml:space="preserve">
    <path d="M84.1,15.4H71c-8,0-14.4,6.4-14.4,14.4c0,6.4,4.1,11.8,9.9,13.7v6.9c0,0.6,0.8,1,1.2,0.5l6.6-6.6h9.8  c8,0,14.4-6.4,14.4-14.4C98.5,21.9,92,15.4,84.1,15.4z M77.3,22c1,0,1.9,0.8,1.9,1.9s-0.8,1.9-1.9,1.9c-1,0-1.9-0.8-1.9-1.9  S76.2,22,77.3,22z M80.1,37.3h-1h-3.3h-1v-2.5h1v-5.1h-0.9v-2.5h0.9h2.8h0.5v7.6h1V37.3z M30.7,67.9l4.3-5.5l4.3,5.5L37,71.5  l3.3,13.6h-1h-8.8h-1l3.3-13.6L30.7,67.9z M46.8,58.2C49.2,59.5,57.9,64,66,70.6c1.5,1.3,2.4,3.1,2.4,5.1v9.4H40.3L46.8,58.2z   M29.6,85.2H1.5v-9.4c0-2,0.9-3.9,2.4-5.1C12,64,20.7,59.5,23.2,58.2L29.6,85.2z M50.7,41.1c-1,3.6-2,4.7-2.7,4.7  c-0.3,1.6-0.9,3.4-1.9,5.1v5.6L35,62.5l-11.1-5.9V51c-1-1.7-1.6-3.6-1.9-5.2c-0.7-0.1-1.7-1.1-2.7-4.7c-1.4-5,0.1-5.7,1.4-5.6  c-0.2-0.7-0.4-1.4-0.5-2h0c-0.5-2.3-0.6-4.5,0-6.6c0.6-2.8,2.1-5,3.8-6.7c1.1-1.1,2.3-2.1,3.5-2.9c1-0.7,2.2-1.3,3.4-1.8l0,0  c1-0.3,2-0.5,3.1-0.6c3.4-0.3,6,0.6,7.9,1.7c2.8,1.5,3.8,3.6,3.8,3.6s6.4,0.5,4.2,13.4c-0.1,0.7-0.3,1.4-0.5,2  C50.6,35.4,52.1,36.1,50.7,41.1z"/>
</svg>