<svg xmlns="http://www.w3.org/2000/svg" xmlns:xlink="http://www.w3.org/1999/xlink" version="1.1" x="0px" y="0px" viewBox="0 0 100 125" enable-background="new 0 0 100 100" xml:space="preserve"><g><path fill="#000000" d="M39.15,18.017c-0.057,0-0.085,0-0.142,0.028c-0.368,0.057-0.651,0.425-0.651,0.793v11.693   c0,0.425,0.368,0.792,0.793,0.792s0.821-0.368,0.793-0.792V18.838C39.971,18.414,39.575,18.017,39.15,18.017L39.15,18.017z    M24.739,23.963c-0.028,0-0.057,0-0.085,0.028c-0.595,0.113-0.821,0.963-0.396,1.359l8.267,8.267c0.312,0.283,0.85,0.283,1.16,0   c0.283-0.312,0.283-0.849-0.027-1.161l-8.268-8.239C25.22,24.02,24.994,23.935,24.739,23.963L24.739,23.963z M53.448,23.963   c-0.028,0-0.057,0-0.113,0.028c-0.142,0.028-0.283,0.113-0.396,0.227l-8.267,8.239c-0.313,0.312-0.313,0.849,0,1.161   c0.283,0.283,0.82,0.283,1.132,0l8.268-8.267C54.581,24.926,54.128,23.878,53.448,23.963L53.448,23.963z M18.737,38.318   c-0.425,0.028-0.765,0.453-0.736,0.877c0.057,0.396,0.453,0.765,0.878,0.708H30.6c0.425,0,0.793-0.368,0.793-0.793   c0-0.424-0.368-0.792-0.793-0.792H18.878c-0.028,0-0.057,0-0.085,0S18.765,38.318,18.737,38.318L18.737,38.318z M47.587,38.318   c-0.426,0.028-0.765,0.453-0.708,0.877c0.028,0.396,0.452,0.765,0.878,0.708H59.45c0.425,0,0.821-0.368,0.821-0.793   c0-0.424-0.396-0.792-0.821-0.792H47.757c-0.029,0-0.057,0-0.086,0C47.644,38.318,47.615,38.318,47.587,38.318L47.587,38.318z    M33.006,44.377c-0.17,0.028-0.34,0.113-0.481,0.254l-8.267,8.267c-0.34,0.283-0.368,0.878-0.057,1.189s0.906,0.283,1.189-0.057   l8.268-8.267C34.138,45.283,33.685,44.292,33.006,44.377L33.006,44.377z M45.152,44.377c-0.48,0.057-0.85,0.651-0.65,1.104   L57.78,78.352c0.255,0.651,1.387,0.538,1.528-0.113l2.209-9.966l13.477,13.477c0.283,0.312,0.849,0.312,1.132,0l5.663-5.662   c0.283-0.283,0.283-0.821,0-1.104L68.284,61.478l9.966-2.209c0.679-0.142,0.764-1.273,0.142-1.528L45.52,44.462   C45.408,44.405,45.265,44.377,45.152,44.377L45.152,44.377z M46.681,46.642L75.419,58.25l-8.862,1.981   c-0.566,0.113-0.821,0.963-0.396,1.359l13.93,13.93l-4.53,4.53l-13.929-13.93c-0.396-0.396-1.218-0.17-1.359,0.396l-1.954,8.891   L46.681,46.642L46.681,46.642z M39.065,46.868c-0.396,0.057-0.735,0.425-0.708,0.821v11.692c0,0.425,0.368,0.821,0.793,0.821   s0.821-0.396,0.793-0.821V47.689c0.028-0.425-0.368-0.821-0.793-0.821C39.122,46.868,39.093,46.868,39.065,46.868L39.065,46.868z"/></g><text x="0" y="115" fill="#000000" font-size="5px" font-weight="bold" font-family="'Helvetica Neue', Helvetica, Arial-Unicode, Arial, Sans-serif">Created by artworkbean</text><text x="0" y="120" fill="#000000" font-size="5px" font-weight="bold" font-family="'Helvetica Neue', Helvetica, Arial-Unicode, Arial, Sans-serif">from the Noun Project</text></svg>